<svg id="Layer_1" data-name="Layer 1" xmlns="http://www.w3.org/2000/svg" xmlns:xlink="http://www.w3.org/1999/xlink" viewBox="0 0 247.06 43.26"><defs><style>.cls-1{fill:none;}.cls-2{clip-path:url(#clip-path);}.cls-3{fill:#fff;}.cls-4{clip-path:url(#clip-path-2);}.cls-5{fill:#498bc9;}</style><clipPath id="clip-path" transform="translate(0.01 0)"><rect class="cls-1" y="-0.75" width="248" height="44"/></clipPath><clipPath id="clip-path-2" transform="translate(0.01 0)"><rect class="cls-1" x="0.06" width="246.99" height="43.25"/></clipPath></defs><title>stsci-logo</title><g class="cls-2"><path class="cls-3" d="M62,15.25a4.12,4.12,0,0,0-3.43-1.88A2.72,2.72,0,0,0,55.78,16c0,3.85,9.08,2.25,9.08,9.92,0,4.58-2.86,7.83-7.53,7.83-3.16,0-5.46-1.82-7-4.46l2.88-2.82a4.72,4.72,0,0,0,4.13,3.34,3.06,3.06,0,0,0,2.95-3.17c0-.05,0-.09,0-.14,0-2.37-2.18-3-4-3.73-2.94-1.22-5.1-2.7-5.1-6.25a6.66,6.66,0,0,1,6.46-6.86h.22a9.32,9.32,0,0,1,6.24,2.55L62,15.25" transform="translate(0.01 0)"/><polyline class="cls-3" points="74.73 33.06 70.27 33.06 70.27 14.06 65.66 14.06 65.66 10.18 79.34 10.18 79.34 14.06 74.73 14.06 74.73 33.06"/><polyline class="cls-3" points="110.94 29.17 112.78 29.17 112.78 33.06 104.64 33.06 104.64 29.17 106.48 29.17 106.48 14.06 104.64 14.06 104.64 10.18 112.78 10.18 112.78 14.06 110.94 14.06 110.94 29.17"/><path class="cls-3" d="M99.47,20.86a4.19,4.19,0,0,1,3.13,1.46V18.25a6.72,6.72,0,0,0-3.46-1A7.54,7.54,0,0,0,92.52,21c-2.66-2.41-7.12-2.44-7.12-5.14a2.73,2.73,0,0,1,2.8-2.58,4.08,4.08,0,0,1,3.42,1.95l2.1-3.09a9.39,9.39,0,0,0-6.25-2.55,6.66,6.66,0,0,0-6.68,6.64v.22c0,3.55,2.16,5,5.1,6.25,1.79.69,4,1.36,4,3.73a3.07,3.07,0,0,1-2.8,3.3h-.2a4.69,4.69,0,0,1-4.12-3.34l-2.86,2.83c1.58,2.64,3.89,4.46,7,4.46a7.11,7.11,0,0,0,6.28-3.19,7.51,7.51,0,0,0,9.41,1.73v-4.1a4,4,0,0,1-3,1.42c-2.43,0-3.92-1.94-3.92-4.28,0-2.18,1.37-4.43,3.76-4.43" transform="translate(0.01 0)"/><path class="cls-3" d="M134.31,10.81a2,2,0,0,0-1.63-.89,1.29,1.29,0,0,0-1.32,1.22c0,1.83,4.3,1.06,4.3,4.7a3.41,3.41,0,0,1-3.12,3.69,3.23,3.23,0,0,1-.44,0,3.83,3.83,0,0,1-3.34-2.11l1.37-1.33a2.22,2.22,0,0,0,2,1.57,1.43,1.43,0,0,0,1.39-1.48v-.08c0-1.12-1-1.44-1.88-1.77-1.39-.57-2.41-1.27-2.41-2.95a3.16,3.16,0,0,1,3.07-3.25h.09a4.4,4.4,0,0,1,3,1.21l-1,1.46" transform="translate(0.01 0)"/><path class="cls-3" d="M138.88,19.25h-2.11V8.43h2.87c2.27,0,3.75.9,3.75,3.36,0,2.3-1.25,3.42-3.46,3.42h-1.05v4m0-5.8h.43c1.25,0,1.92-.27,1.92-1.68s-.8-1.59-2-1.59h-.37Z" transform="translate(0.01 0)"/><path class="cls-3" d="M145.42,17l-.89,2.28H142.3l4.22-11.11h1.64l4.11,11.11H150L149.17,17h-3.76m1.82-5.65h0L146,15.25h2.57Z" transform="translate(0.01 0)"/><path class="cls-3" d="M159.87,11.3a3.11,3.11,0,0,0-2.38-1.15c-2,0-3.19,1.87-3.19,3.74a3.4,3.4,0,0,0,3.14,3.64h0a3.27,3.27,0,0,0,2.4-1.15V18.9a5.84,5.84,0,0,1-2.46.64,5.45,5.45,0,0,1-5.29-5.61h0a5.5,5.5,0,0,1,5.2-5.78h.14a5.09,5.09,0,0,1,2.41.63V11.3" transform="translate(0.01 0)"/><polyline class="cls-3" points="163.39 10.27 163.39 12.65 166.75 12.65 166.75 14.49 163.39 14.49 163.39 17.42 166.88 17.42 166.88 19.26 161.28 19.26 161.28 8.43 166.88 8.43 166.88 10.27 163.39 10.27"/><polyline class="cls-3" points="175.96 19.26 173.85 19.26 173.85 10.27 171.66 10.27 171.66 8.43 178.14 8.43 178.14 10.27 175.96 10.27 175.96 19.26"/><polyline class="cls-3" points="181.03 10.27 181.03 12.65 184.39 12.65 184.39 14.49 181.03 14.49 181.03 17.42 184.52 17.42 184.52 19.26 178.92 19.26 178.92 8.43 184.52 8.43 184.52 10.27 181.03 10.27"/><polyline class="cls-3" points="188.04 17.42 191.03 17.42 191.03 19.26 185.93 19.26 185.93 8.43 188.04 8.43 188.04 17.42"/><polyline class="cls-3" points="193.82 10.27 193.82 12.65 197.18 12.65 197.18 14.49 193.82 14.49 193.82 17.42 197.31 17.42 197.31 19.26 191.71 19.26 191.71 8.43 197.31 8.43 197.31 10.27 193.82 10.27"/><path class="cls-3" d="M203.8,10.81a2,2,0,0,0-1.62-.89,1.29,1.29,0,0,0-1.32,1.22c0,1.83,4.3,1.06,4.3,4.7A3.43,3.43,0,0,1,202,19.53a3,3,0,0,1-.42,0,3.86,3.86,0,0,1-3.33-2.11l1.37-1.33a2.22,2.22,0,0,0,2,1.57,1.44,1.44,0,0,0,1.37-1.5v-.06c0-1.12-1-1.44-1.88-1.77-1.39-.57-2.41-1.27-2.41-2.95a3.15,3.15,0,0,1,3-3.25h.11a4.4,4.4,0,0,1,3,1.21l-1,1.46" transform="translate(0.01 0)"/><path class="cls-3" d="M213.5,11.3a3.11,3.11,0,0,0-2.38-1.15c-2,0-3.19,1.87-3.19,3.74a3.41,3.41,0,0,0,3.16,3.64h0a3.27,3.27,0,0,0,2.4-1.15V18.9a5.83,5.83,0,0,1-2.45.64,5.47,5.47,0,0,1-5.3-5.61A5.51,5.51,0,0,1,211,8.14h.12a5,5,0,0,1,2.41.63V11.3" transform="translate(0.01 0)"/><path class="cls-3" d="M214.38,13.83a5.37,5.37,0,0,1,10.72-.66q0,.33,0,.66a5.37,5.37,0,1,1-10.72.66q0-.33,0-.66m2.19-.09c0,1.64,1.38,3.72,3.17,3.72s3.17-2.08,3.17-3.72a3.19,3.19,0,1,0-6.34-.71A2.81,2.81,0,0,0,216.57,13.74Z" transform="translate(0.01 0)"/><path class="cls-3" d="M228.25,19.25h-2.11V8.43H229c2.27,0,3.75.9,3.75,3.36,0,2.3-1.25,3.42-3.47,3.42h-1v4m0-5.8h.43c1.25,0,1.92-.27,1.92-1.68s-.8-1.59-2-1.59h-.37Z" transform="translate(0.01 0)"/><polyline class="cls-3" points="235.84 10.27 235.84 12.65 239.2 12.65 239.2 14.49 235.84 14.49 235.84 17.42 239.33 17.42 239.33 19.26 233.73 19.26 233.73 8.43 239.33 8.43 239.33 10.27 235.84 10.27"/><path class="cls-3" d="M134.31,26.38a2,2,0,0,0-1.63-.89,1.29,1.29,0,0,0-1.32,1.22c0,1.82,4.3,1.06,4.3,4.69a3.43,3.43,0,0,1-3.14,3.7,3,3,0,0,1-.42,0A3.83,3.83,0,0,1,128.76,33l1.37-1.34a2.24,2.24,0,0,0,2,1.58,1.43,1.43,0,0,0,1.39-1.48v-.08c0-1.12-1-1.44-1.88-1.77-1.39-.57-2.41-1.28-2.41-3a3.15,3.15,0,0,1,3.06-3.24h.1a4.46,4.46,0,0,1,3,1.2l-1,1.47" transform="translate(0.01 0)"/><path class="cls-3" d="M144,26.86a3.15,3.15,0,0,0-2.39-1.14c-2,0-3.19,1.86-3.19,3.73a3.42,3.42,0,0,0,3.17,3.65h0A3.37,3.37,0,0,0,144,32v2.51a5.7,5.7,0,0,1-2.46.65,5.48,5.48,0,0,1-5.3-5.62,5.51,5.51,0,0,1,5.23-5.78h.11a5.1,5.1,0,0,1,2.42.63v2.52" transform="translate(0.01 0)"/><rect class="cls-3" x="145.41" y="23.99" width="2.11" height="10.83"/><polyline class="cls-3" points="151.17 25.83 151.17 28.22 154.53 28.22 154.53 30.05 151.17 30.05 151.17 32.98 154.66 32.98 154.66 34.82 149.06 34.82 149.06 24 154.66 24 154.66 25.83 151.17 25.83"/><polyline class="cls-3" points="156.07 23.71 157.6 23.71 163.3 31.28 163.32 31.28 163.32 24 165.44 24 165.44 35.04 163.91 35.04 158.21 27.47 158.18 27.47 158.18 34.82 156.07 34.82 156.07 23.71"/><path class="cls-3" d="M174.21,26.86a3.15,3.15,0,0,0-2.39-1.14c-2,0-3.19,1.86-3.19,3.73a3.42,3.42,0,0,0,3.17,3.65h0a3.34,3.34,0,0,0,2.4-1.15v2.51a5.7,5.7,0,0,1-2.46.65,5.48,5.48,0,0,1-5.3-5.62,5.51,5.51,0,0,1,5.23-5.78h.11a5.1,5.1,0,0,1,2.42.63v2.52" transform="translate(0.01 0)"/><polyline class="cls-3" points="177.73 25.83 177.73 28.22 181.08 28.22 181.08 30.05 177.73 30.05 177.73 32.98 181.21 32.98 181.21 34.82 175.61 34.82 175.61 24 181.21 24 181.21 25.83 177.73 25.83"/><rect class="cls-3" x="186.78" y="23.99" width="2.11" height="10.83"/><polyline class="cls-3" points="190.43 23.71 191.95 23.71 197.65 31.28 197.68 31.28 197.68 24 199.79 24 199.79 35.04 198.27 35.04 192.57 27.47 192.54 27.47 192.54 34.82 190.43 34.82 190.43 23.71"/><path class="cls-3" d="M206.42,26.38a1.92,1.92,0,0,0-1.62-.89,1.28,1.28,0,0,0-1.32,1.22c0,1.82,4.29,1.06,4.29,4.69a3.43,3.43,0,0,1-3.14,3.7,3,3,0,0,1-.42,0A3.8,3.8,0,0,1,200.88,33l1.36-1.34a2.23,2.23,0,0,0,1.95,1.59,1.45,1.45,0,0,0,1.4-1.5v-.06c0-1.12-1-1.44-1.88-1.77-1.4-.57-2.42-1.28-2.42-3a3.15,3.15,0,0,1,3.06-3.24h.1a4.46,4.46,0,0,1,3,1.2l-1,1.47" transform="translate(0.01 0)"/><polyline class="cls-3" points="212.41 34.82 210.29 34.82 210.29 25.83 208.11 25.83 208.11 24 214.59 24 214.59 25.83 212.41 25.83 212.41 34.82"/><rect class="cls-3" x="215.37" y="23.99" width="2.11" height="10.83"/><polyline class="cls-3" points="222.54 34.82 220.42 34.82 220.42 25.83 218.24 25.83 218.24 24 224.72 24 224.72 25.83 222.54 25.83 222.54 34.82"/><path class="cls-3" d="M225.43,24h2.11v6.06c0,1.34.12,3.22,1.91,3.22s1.91-1.88,1.91-3.22V24h2.11v6.48c0,2.64-1.12,4.64-4,4.64s-4-2-4-4.64V24" transform="translate(0.01 0)"/><polyline class="cls-3" points="238.5 34.82 236.39 34.82 236.39 25.83 234.2 25.83 234.2 24 240.68 24 240.68 25.83 238.5 25.83 238.5 34.82"/><polyline class="cls-3" points="243.57 25.83 243.57 28.22 246.93 28.22 246.93 30.05 243.57 30.05 243.57 32.98 247.06 32.98 247.06 34.82 241.46 34.82 241.46 24 247.06 24 247.06 25.83 243.57 25.83"/></g><g class="cls-4"><g class="cls-2"><rect class="cls-3" x="120.57" y="8.43" width="1.2" height="26.41"/><path class="cls-5" d="M43.25,21.62A21.63,21.63,0,1,1,21.61,0h0A21.62,21.62,0,0,1,43.25,21.62" transform="translate(0.01 0)"/></g><g class="cls-2"><path class="cls-3" d="M21.63,42.05A20.43,20.43,0,1,1,42.05,21.61h0A20.46,20.46,0,0,1,21.63,42.05m0-40.25A19.83,19.83,0,1,0,41.45,21.64v0A19.84,19.84,0,0,0,21.63,1.8Z" transform="translate(0.01 0)"/><path class="cls-3" d="M31.26,13.78a9.64,9.64,0,0,0-19.27,0h-.93V35.31H32.19V13.78h-.93M21.63,5a9,9,0,0,1,5.28,16.39l-.76-7.79h0a4.55,4.55,0,0,0-9,0h0l-.75,7.79A9,9,0,0,1,21.63,5Zm0,27.41L21,29.67h1.23Zm1.21-2.71a10,10,0,0,1,7.54,5H21.74Zm-1.33,5H12.87a10,10,0,0,1,7.54-5Zm.12-5.66h-.75l-.18-.82a5.58,5.58,0,0,0,.91.07h0a5.62,5.62,0,0,0,.92-.08l-.18.84Zm0-1.34h0a4.63,4.63,0,0,1-1.05-.12l-.89-4.06a10.1,10.1,0,0,0,4,0l-.9,4a4.59,4.59,0,0,1-1.17.16ZM17.45,16.25,18,18.74a5.64,5.64,0,0,0-.89,1Zm.81.88a4.52,4.52,0,0,0,.91.78,5.4,5.4,0,0,0-.65.4Zm1.57,1.12a4.57,4.57,0,0,0,3.59,0,4.49,4.49,0,0,1,1.17.7l-.86,3.91a8.57,8.57,0,0,1-4.21,0l-.86-3.92A4.45,4.45,0,0,1,19.83,18.25Zm6.31,1.49a5.26,5.26,0,0,0-.88-1l.54-2.49ZM24.73,18.3a5.4,5.4,0,0,0-.65-.4,4.58,4.58,0,0,0,.92-.78Zm.37,1.12a4.66,4.66,0,0,1,1.22,2.37,8.76,8.76,0,0,1-1.94.9Zm.47-5.35a4,4,0,1,1-4-3.94h0a4,4,0,0,1,3.94,3.95Zm-7.42,5.34.72,3.28a8.76,8.76,0,0,1-1.94-.9,4.59,4.59,0,0,1,1.22-2.37ZM19,23.36l.89,4a4.73,4.73,0,0,1-2.43-2.11l-2.14-3.86A9.66,9.66,0,0,0,19,23.36Zm5.23,0a9.7,9.7,0,0,0,3.69-2l-2.13,3.89a4.69,4.69,0,0,1-2.44,2.14Zm-12.58-9H12a9.54,9.54,0,0,0,1.24,4.45h0l3.7,6.68a5.31,5.31,0,0,0,3.12,2.57l.23,1.06a10.62,10.62,0,0,0-8.1,5.57h-.52ZM31.59,34.71h-.52A10.62,10.62,0,0,0,23,29.14l.23-1.06a5.3,5.3,0,0,0,3.12-2.56L30,18.83h0a9.54,9.54,0,0,0,1.24-4.45h.33Z" transform="translate(0.01 0)"/></g></g></svg>